<svg width="43" height="53" viewBox="0 0 43 53" fill="none" xmlns="http://www.w3.org/2000/svg">
<path d="M11.1708 23.612C13.5979 28.9682 18.794 31.2996 21.3731 31.2996C23.0689 31.2996 25.8962 30.2908 28.3238 28.0779C27.4362 28.1398 26.4875 28.1712 25.4737 28.1712C25.2358 28.1712 24.9862 28.1691 24.7195 28.1649C24.2085 28.5585 23.5754 28.7804 22.9185 28.7804H20.7584C19.1305 28.7804 17.8063 27.4561 17.8063 25.8283C17.8063 24.2004 19.1305 22.8762 20.7584 22.8762H22.9185C23.6988 22.8762 24.4286 23.1803 24.97 23.7049C25.1498 23.7069 25.3271 23.7078 25.5011 23.7078C28.2896 23.7078 30.1272 23.452 31.3294 23.1436C31.1734 22.7641 31.0885 22.349 31.0885 21.9155V14.4305C31.0885 13.6519 31.3775 12.9055 31.8772 12.3289C31.6105 10.2531 31.1265 8.66831 30.4041 7.49927C28.9157 5.09021 26.046 3.96826 21.3731 3.96826C17.4967 3.96826 14.8197 4.77296 13.1896 6.4283C11.926 7.71154 11.1937 9.54256 10.8514 12.3079C11.3623 12.8867 11.6578 13.6407 11.6578 14.4305V21.9155C11.658 22.5383 11.479 23.1195 11.1708 23.612Z" fill="#FF3811"/>
<path d="M5.85973 23.6827H8.45096C9.42646 23.6827 10.2179 22.8915 10.2179 21.9156V14.4306C10.2179 13.7786 9.8638 13.2105 9.33847 12.9043C9.91708 6.77531 12.2822 2.52816 21.3733 2.52816C26.5939 2.52816 29.8529 3.86741 31.6293 6.74247C32.663 8.41553 33.1603 10.5765 33.3925 12.9135C32.8756 13.2218 32.5285 13.7849 32.5285 14.4305V21.9154C32.5285 22.7569 33.1172 23.4595 33.9048 23.6376C32.7625 24.3847 30.3977 25.1478 25.501 25.1478C25.1045 25.1478 24.691 25.1428 24.2604 25.1324C24.0084 24.6478 23.5027 24.3162 22.9186 24.3162H20.7587C19.9237 24.3162 19.2466 24.9931 19.2466 25.8282C19.2466 26.6633 19.9237 27.3403 20.7587 27.3403H22.9186C23.4232 27.3403 23.869 27.0922 24.1435 26.7124C24.5983 26.7239 25.0435 26.7311 25.4738 26.7311C30.9933 26.731 34.502 25.7889 35.923 23.9197C35.9835 23.8402 36.0386 23.761 36.0889 23.6827H36.8871C37.8628 23.6827 38.6541 22.8915 38.6541 21.9156V14.4306C38.6541 13.4548 37.8629 12.6637 36.8871 12.6637H35.9125C35.6383 9.84003 35.0305 7.43629 33.7802 5.4133C31.5297 1.77069 27.471 0 21.3731 0C15.2748 0 11.2166 1.77069 8.96593 5.41345C7.71582 7.43643 7.10826 9.83988 6.83393 12.6638H5.85959C4.88366 12.6638 4.0925 13.4548 4.0925 14.4308V21.9157C4.0925 22.8915 4.88381 23.6827 5.85973 23.6827Z" fill="#444444"/>
<path d="M42.736 45.6928C42.1485 42.0398 40.939 37.3343 38.5132 35.6624C36.8592 34.5217 31.0846 31.4364 28.6188 30.1191L28.5669 30.0914C28.2847 29.9406 27.9404 29.9709 27.6888 30.1683C26.3952 31.1837 24.979 31.8677 23.4798 32.2014C23.2148 32.2603 22.9972 32.4488 22.9009 32.7025L21.3731 36.729L19.8454 32.7025C19.749 32.4486 19.5315 32.2603 19.2665 32.2014C17.7672 31.8677 16.3508 31.1837 15.0571 30.1683C14.8056 29.9707 14.4612 29.9405 14.1791 30.0914C11.7408 31.3941 5.89142 34.5442 4.23996 35.6575C1.44641 37.5395 0.226392 44.3474 0.0102404 45.6929C-0.0112164 45.8264 0.00116806 45.963 0.0462417 46.0903C0.146181 46.3725 2.70861 53.0001 21.373 53.0001C40.0371 53.0001 42.5998 46.3725 42.6999 46.0904C42.7451 45.9628 42.7575 45.8262 42.736 45.6928ZM34.0456 41.4979H26.6532V39.9411H34.0456V41.4979Z" fill="#444444"/>
</svg>
