<svg width="54" height="53" viewBox="0 0 54 53" fill="none" xmlns="http://www.w3.org/2000/svg">
<path d="M20.8984 33.9036C21.0715 33.7306 21.2089 33.5252 21.3026 33.2992C21.3963 33.0731 21.4445 32.8308 21.4445 32.5861C21.4445 32.3413 21.3963 32.099 21.3026 31.8729C21.2089 31.6469 21.0715 31.4415 20.8984 31.2686L20.2466 30.6075L14.9766 25.3375C14.8032 25.1641 14.597 25.027 14.37 24.9342C14.1429 24.8415 13.8997 24.795 13.6545 24.7975C13.163 24.7987 12.6917 24.9926 12.3416 25.3375C12.1676 25.5099 12.0295 25.7152 11.9352 25.9413C11.8409 26.1674 11.7924 26.41 11.7924 26.655C11.7924 26.9 11.8409 27.1426 11.9352 27.3687C12.0295 27.5948 12.1676 27.8 12.3416 27.9725L18.2634 33.9036C18.6142 34.2503 19.0876 34.4447 19.5809 34.4447C20.0742 34.4447 20.5475 34.2503 20.8984 33.9036Z" fill="#FF3811"/>
<path d="M24.1945 29.2942C24.3676 29.1212 24.505 28.9158 24.5987 28.6898C24.6924 28.4637 24.7406 28.2214 24.7406 27.9767C24.7406 27.7319 24.6924 27.4896 24.5987 27.2635C24.505 27.0375 24.3676 26.8321 24.1945 26.6592L22.8816 25.337H22.8723L20.5725 23.0372L18.2634 20.7281C17.9086 20.4077 17.4442 20.2361 16.9663 20.2487C16.4885 20.2613 16.0338 20.4572 15.6963 20.7958C15.3589 21.1344 15.1647 21.5898 15.1537 22.0677C15.1428 22.5456 15.3161 23.0094 15.6377 23.3631L16.2895 24.0242L21.5595 29.2942C21.9114 29.6389 22.3844 29.832 22.877 29.832C23.3696 29.832 23.8426 29.6389 24.1945 29.2942Z" fill="#FF3811"/>
<path d="M30.7773 17.4417L25.5073 12.1717C25.1511 11.8353 24.6797 11.6479 24.1898 11.6479C23.6999 11.6479 23.2285 11.8353 22.8723 12.1717C22.5256 12.5225 22.3311 12.9959 22.3311 13.4892C22.3311 13.9825 22.5256 14.4558 22.8723 14.8067L28.1423 20.0767L30.7773 17.4417Z" fill="#FF3811"/>
<path d="M26.8295 21.3891L20.8984 15.4674C20.5444 15.1268 20.0722 14.9365 19.5809 14.9365C19.0896 14.9365 18.6175 15.1268 18.2634 15.4674C18.0908 15.6396 17.9538 15.8443 17.8604 16.0696C17.7669 16.2948 17.7188 16.5363 17.7188 16.7802C17.7188 17.0241 17.7669 17.2656 17.8604 17.4909C17.9538 17.7161 18.0908 17.9208 18.2634 18.0931L21.8854 21.715L24.1945 24.0241C24.5507 24.3605 25.0221 24.5479 25.512 24.5479C26.0019 24.5479 26.4733 24.3605 26.8295 24.0241L26.9412 23.8845C26.7665 23.5164 26.6759 23.1141 26.6759 22.7066C26.6759 22.2992 26.7665 21.8969 26.9412 21.5288L26.8295 21.3891Z" fill="#FF3811"/>
<path d="M30.7773 14.8065L32.0901 16.1194C32.8002 15.442 33.7438 15.0641 34.7251 15.0641C35.7064 15.0641 36.6501 15.442 37.3601 16.1194L39.9951 18.7544L41.2055 17.544C41.4761 17.269 41.8019 17.0547 42.1614 16.915C42.5209 16.7754 42.906 16.7137 43.2912 16.7339C44.5693 16.8105 45.8479 16.5931 47.0288 16.0983C48.2097 15.6034 49.2614 14.8444 50.1031 13.8796C50.9447 12.9147 51.5539 11.7697 51.8839 10.5326C52.2138 9.29543 52.2557 7.99912 52.0062 6.74327L47.09 11.6594C46.988 11.7626 46.8634 11.8406 46.7261 11.8875C46.5887 11.9343 46.4424 11.9487 46.2986 11.9295L41.6897 11.2684C41.4898 11.2401 41.3045 11.1476 41.1618 11.0049C41.0191 10.8621 40.9266 10.6768 40.8983 10.477L40.2372 5.86805C40.218 5.72423 40.2323 5.57792 40.2792 5.4406C40.326 5.30328 40.4041 5.17869 40.5072 5.07662L45.4234 0.160443C44.1675 -0.0889869 42.8712 -0.0471278 41.6341 0.282802C40.397 0.612732 39.252 1.22195 38.2871 2.06361C37.3222 2.90528 36.5632 3.95698 36.0684 5.13788C35.5736 6.31877 35.3561 7.5974 35.4328 8.87548C35.4538 9.26073 35.3924 9.64604 35.2527 10.0057C35.113 10.3653 34.8983 10.6911 34.6227 10.9611L30.7773 14.8065Z" fill="#444444"/>
<path d="M45.2837 37.1616C43.8766 35.5741 42.9952 33.5902 42.7605 31.4819L42.0901 25.5043C41.9194 24.0314 41.2605 22.658 40.2186 21.603L36.0473 17.441C35.6932 17.1004 35.2211 16.9102 34.7298 16.9102C34.2385 16.9102 33.7663 17.1004 33.4123 17.441L28.8034 22.0499C28.63 22.2244 28.5326 22.4604 28.5326 22.7063C28.5326 22.9523 28.63 23.1883 28.8034 23.3628C29.3271 23.8858 30.0371 24.1797 30.7773 24.1797C31.5175 24.1797 32.2275 23.8858 32.7512 23.3628C33.2835 22.8561 33.9903 22.5735 34.7251 22.5735C35.46 22.5735 36.1667 22.8561 36.699 23.3628C36.9587 23.6217 37.1648 23.9294 37.3053 24.2681C37.4459 24.6068 37.5183 24.9699 37.5183 25.3367C37.5183 25.7034 37.4459 26.0665 37.3053 26.4053C37.1648 26.744 36.9587 27.0516 36.699 27.3106L36.0473 27.9717C35.1745 28.8447 34.6842 30.0286 34.6842 31.2631C34.6842 32.4975 35.1745 33.6815 36.0473 34.5545L36.699 35.2156C36.8725 35.39 36.9698 35.626 36.9698 35.872C36.9698 36.118 36.8725 36.354 36.699 36.5284C36.6141 36.6168 36.5121 36.6871 36.3993 36.7351C36.2865 36.7831 36.1652 36.8079 36.0426 36.8079C35.92 36.8079 35.7987 36.7831 35.6859 36.7351C35.5731 36.6871 35.4712 36.6168 35.3862 36.5284L34.7251 35.8767C33.5043 34.6535 32.8186 32.9959 32.8186 31.2677C32.8186 29.5396 33.5043 27.882 34.7251 26.6588L35.3862 25.9978C35.4729 25.9111 35.5415 25.8079 35.5878 25.6944C35.6342 25.5809 35.6574 25.4593 35.6562 25.3367C35.6574 25.2155 35.6341 25.0952 35.5877 24.9832C35.5413 24.8712 35.4728 24.7698 35.3862 24.6849C35.2101 24.5146 34.9748 24.4194 34.7298 24.4194C34.4848 24.4194 34.2494 24.5146 34.0734 24.6849C33.3118 25.4416 32.3129 25.913 31.2446 26.0198C30.1763 26.1267 29.1038 25.8624 28.2075 25.2715C28.1795 25.2901 28.1702 25.3181 28.1423 25.3367C27.6194 25.8667 26.9468 26.2241 26.2149 26.3609C26.4821 26.9023 26.6121 27.5011 26.5937 28.1046C26.5752 28.7081 26.4088 29.2978 26.109 29.8219C25.8093 30.346 25.3853 30.7885 24.8746 31.1104C24.3638 31.4323 23.7817 31.6238 23.1796 31.6681C23.3815 32.4573 23.3186 33.291 23.0004 34.0409C22.6822 34.7908 22.1264 35.4153 21.4186 35.8185C20.7107 36.2216 19.89 36.381 19.0827 36.272C18.2754 36.1631 17.5263 35.7919 16.9506 35.2156L13.6545 31.9195L10.9822 34.6011C10.7101 34.8738 10.384 35.0867 10.0249 35.2262C9.66577 35.3657 9.28147 35.4287 8.89659 35.4111C8.729 35.4018 8.52415 35.3925 8.38449 35.3925C6.16202 35.3912 4.03008 36.2729 2.45768 37.8436C0.885286 39.4142 0.00122837 41.5452 -6.33434e-06 43.7677C-0.00124104 45.9901 0.880449 48.1221 2.4511 49.6945C4.02175 51.2669 6.15271 52.1509 8.37518 52.1522H8.40311C10.624 52.1497 12.753 51.2657 14.3225 49.6945C15.8921 48.1232 16.7736 45.9932 16.7736 43.7723C16.7736 43.6047 16.7643 43.4371 16.755 43.2695C16.7353 42.8844 16.7973 42.4995 16.9369 42.14C17.0765 41.7806 17.2906 41.4547 17.5651 41.1839L31.4384 27.3106C31.6128 27.1372 31.8488 27.0398 32.0948 27.0398C32.3408 27.0398 32.5768 27.1372 32.7512 27.3106C32.9257 27.4864 33.0235 27.724 33.0235 27.9717C33.0235 28.2193 32.9257 28.4569 32.7512 28.6327L22.8723 38.5116L33.4123 49.0423L45.2837 37.1616ZM14.2429 45.8207L10.4413 49.6215C10.2667 49.7961 10.0299 49.8942 9.78299 49.8943C9.70188 49.8943 9.6211 49.8837 9.54277 49.8626L4.35006 48.4743C4.19222 48.432 4.04829 48.3489 3.93274 48.2334C3.81719 48.1178 3.73409 47.9739 3.69178 47.8161L2.30073 42.6234C2.25861 42.4656 2.25872 42.2995 2.30104 42.1418C2.34337 41.9841 2.42643 41.8403 2.54188 41.7248L6.3426 37.9232C6.45816 37.8076 6.60212 37.7244 6.76001 37.6821C6.91789 37.6398 7.08414 37.6397 7.24204 37.682L12.4347 39.0731C12.5926 39.1154 12.7365 39.1985 12.8521 39.3141C12.9676 39.4296 13.0507 39.5735 13.093 39.7314L14.4841 44.9241C14.5264 45.082 14.5264 45.2482 14.484 45.4061C14.4417 45.564 14.3585 45.708 14.2429 45.8235V45.8207Z" fill="#444444"/>
<path d="M7.27929 39.6201L4.23834 42.6611L5.351 46.8156L9.50554 47.9283L12.5465 44.8873L11.4329 40.7337L7.27929 39.6201Z" fill="#444444"/>
<path d="M52.4997 41.7993L47.8908 37.1904L33.4123 51.6782L34.0734 52.33C34.1602 52.4171 34.229 52.5205 34.2756 52.6343C34.3223 52.7481 34.346 52.87 34.3453 52.9929L53.1701 53.0004L53.1626 42.0712C53.0397 42.0719 52.9178 42.0483 52.804 42.0016C52.6902 41.9549 52.5868 41.8862 52.4997 41.7993Z" fill="#444444"/>
</svg>
